<svg xmlns="http://www.w3.org/2000/svg" width="116" height="100" viewBox="0 0 116 100" fill="none">
  <g id="svg_1" fill="#000000" transform="translate(0,100) scale(0.10000000149011612,-0.10000000149011612) ">
   <path id="svg_2" d="m129,797c-61,-41 -64,-56 -64,-317c0,-273 4,-287 82,-322c52,-23 128,-20 169,7c51,33 59,59 62,212l4,143l-82,0l-81,0l3,-47c3,-44 5,-48 31,-51c27,-3 27,-4 27,-78c0,-61 -4,-78 -20,-94c-24,-24 -38,-25 -68,-4c-22,15 -22,19 -22,238c0,238 2,246 51,246c38,0 59,-25 59,-70c0,-21 3,-41 8,-43c4,-2 26,-2 50,1c42,4 42,4 42,46c0,54 -27,105 -69,133c-48,32 -135,32 -182,0z"/>
   <path id="svg_3" d="m478,815c-5,-5 -8,-156 -8,-337l0,-328l50,0l50,0l0,135l0,134l59,7c118,13 155,60 156,194c0,147 -40,187 -202,197c-54,3 -101,2 -105,-2zm185,-110c19,-19 31,-85 22,-125c-9,-43 -31,-60 -76,-60l-39,0l0,100l0,100l39,0c22,0 46,-7 54,-15z"/>
   <path id="svg_4" d="m820,770l0,-50l55,0l55,0l0,-285l0,-285l50,0l50,0l0,285l0,285l50,0l50,0l0,50l0,50l-155,0l-155,0l0,-50z"/>
   <path id="svg_5" d="m1512,800c-57,-35 -62,-62 -62,-323c0,-227 1,-235 23,-268c33,-50 80,-71 145,-65c30,2 65,12 79,21c36,24 63,90 63,158l0,57l-50,0l-50,0l0,-55c0,-42 -5,-60 -20,-75c-24,-24 -38,-25 -68,-4c-22,15 -22,19 -22,234c0,236 3,250 54,250c36,0 56,-30 56,-84l0,-47l48,3l47,3l3,50c3,62 -20,111 -67,142c-45,30 -132,32 -179,3z"/>
   <path id="svg_6" d="m1847,813c-4,-3 -7,-154 -7,-335l0,-328l50,0l50,0l0,145l0,145l60,0l60,0l0,-145l0,-145l55,0l55,0l-2,332l-3,333l-50,0l-50,0l-3,-137l-3,-138l-59,0l-60,0l0,140l0,140l-43,0c-24,0 -47,-3 -50,-7z"/>
   <path id="svg_7" d="m2356,811c-5,-8 -116,-634 -116,-653c0,-5 22,-8 49,-8l49,0l6,47c15,108 12,103 71,103c59,0 56,5 71,-103l6,-47l49,0c39,0 49,3 49,17c0,14 -92,556 -106,626c-5,26 -8,27 -64,27c-32,0 -61,-4 -64,-9zm78,-261c9,-63 19,-125 22,-138c4,-22 2,-23 -36,-20c-22,2 -41,8 -41,13c-2,15 34,266 37,263c1,-2 9,-55 18,-118z"/>
   <path id="svg_8" d="m2597,814c-4,-4 -7,-27 -7,-51l0,-43l55,0l55,0l0,-285l0,-285l50,0l50,0l0,285l0,285l56,0l55,0l-3,48l-3,47l-151,3c-82,1 -153,-1 -157,-4z"/>
   <path id="svg_9" d="m3429,797c-64,-42 -69,-65 -69,-315c0,-247 5,-273 61,-313c46,-32 124,-35 178,-7c77,40 81,57 81,318c0,252 -5,275 -69,317c-47,32 -135,32 -182,0zm135,-89c13,-19 16,-58 16,-228c0,-222 -3,-233 -52,-245c-19,-5 -32,-1 -47,14c-20,20 -21,31 -21,233c0,183 2,214 17,230c23,25 68,23 87,-4z"/>
   <path id="svg_10" d="m3737,814c-4,-4 -7,-27 -7,-51l0,-43l55,0l55,0l0,-285l0,-285l50,0l50,0l0,285l0,285l56,0l55,0l-3,48l-3,47l-151,3c-82,1 -153,-1 -157,-4z"/>
   <path id="svg_11" d="m2970,480l0,-330l94,0c105,0 138,9 178,47c69,66 57,246 -19,286l-27,14l22,12c34,18 52,64 52,131c0,72 -24,127 -68,153c-23,13 -53,17 -131,17l-101,0l0,-330zm184,218c9,-13 16,-43 16,-70c0,-57 -25,-88 -70,-88l-30,0l0,90l0,90l34,0c25,0 39,-7 50,-22zm13,-274c8,-10 13,-46 13,-85c0,-59 -3,-70 -22,-83c-12,-9 -37,-16 -55,-16l-33,0l0,106l0,107l42,-6c23,-3 48,-14 55,-23z"/>
   <path id="svg_12" d="m4858,623c12,-2 30,-2 40,0c9,3 -1,5 -23,4c-22,0 -30,-2 -17,-4z"/>
   <path id="svg_13" d="m4790,593c-16,-21 -20,-36 -15,-58c3,-16 6,-38 6,-47c0,-12 8,-17 22,-17c12,1 38,-2 57,-5c27,-5 25,-3 -11,9c-69,22 -89,76 -44,120c13,14 20,25 15,25c-5,0 -18,-12 -30,-27z"/>
   <path id="svg_14" d="m4389,589c-50,-50 -1,-79 133,-79c116,0 148,10 148,44c0,44 -32,56 -152,56c-96,0 -110,-2 -129,-21zm70,-22c0,-9 -2,-8 -6,1c-2,6 -10,9 -15,6c-7,-4 -8,-2 -4,5c9,13 26,5 25,-12zm29,-8c-3,-8 -7,-3 -11,10c-4,17 -3,21 5,13c5,-5 8,-16 6,-23zm75,11c-3,-12 -8,-19 -11,-16c-5,6 5,36 12,36c2,0 2,-9 -1,-20zm42,-30c-3,-5 -14,-10 -23,-9c-14,0 -13,2 3,9c27,11 27,11 20,0z"/>
   <path id="svg_15" d="m4951,593c7,-12 15,-20 18,-17c3,2 -3,12 -13,22c-17,16 -18,16 -5,-5z"/>
   <path id="svg_16" d="m4970,546c0,-7 -9,-26 -21,-42l-21,-29l26,28c23,25 35,57 21,57c-3,0 -5,-6 -5,-14z"/>
   <path id="svg_17" d="m1162,483l3,-48l100,0l100,0l3,48l3,47l-106,0l-106,0l3,-47z"/>
   <path id="svg_18" d="m4480,466c5,-5 23,-9 40,-9c17,0 35,4 40,9c5,5 -10,9 -40,9c-30,0 -45,-4 -40,-9z"/>
  </g>
  </svg>
